%TF.GenerationSoftware,KiCad,Pcbnew,7.0.5-0*%
%TF.CreationDate,2023-06-18T22:27:15-04:00*%
%TF.ProjectId,esp_connectors,6573705f-636f-46e6-9e65-63746f72732e,rev?*%
%TF.SameCoordinates,Original*%
%TF.FileFunction,Legend,Top*%
%TF.FilePolarity,Positive*%
%FSLAX46Y46*%
G04 Gerber Fmt 4.6, Leading zero omitted, Abs format (unit mm)*
G04 Created by KiCad (PCBNEW 7.0.5-0) date 2023-06-18 22:27:15*
%MOMM*%
%LPD*%
G01*
G04 APERTURE LIST*
%ADD10C,0.150000*%
%ADD11C,0.120000*%
%ADD12C,0.127000*%
%ADD13C,0.200000*%
G04 APERTURE END LIST*
D10*
%TO.C,Vc*%
X157038095Y-82054819D02*
X157371428Y-83054819D01*
X157371428Y-83054819D02*
X157704761Y-82054819D01*
X158466666Y-83007200D02*
X158371428Y-83054819D01*
X158371428Y-83054819D02*
X158180952Y-83054819D01*
X158180952Y-83054819D02*
X158085714Y-83007200D01*
X158085714Y-83007200D02*
X158038095Y-82959580D01*
X158038095Y-82959580D02*
X157990476Y-82864342D01*
X157990476Y-82864342D02*
X157990476Y-82578628D01*
X157990476Y-82578628D02*
X158038095Y-82483390D01*
X158038095Y-82483390D02*
X158085714Y-82435771D01*
X158085714Y-82435771D02*
X158180952Y-82388152D01*
X158180952Y-82388152D02*
X158371428Y-82388152D01*
X158371428Y-82388152D02*
X158466666Y-82435771D01*
%TO.C,Gn*%
X157609523Y-83502438D02*
X157514285Y-83454819D01*
X157514285Y-83454819D02*
X157371428Y-83454819D01*
X157371428Y-83454819D02*
X157228571Y-83502438D01*
X157228571Y-83502438D02*
X157133333Y-83597676D01*
X157133333Y-83597676D02*
X157085714Y-83692914D01*
X157085714Y-83692914D02*
X157038095Y-83883390D01*
X157038095Y-83883390D02*
X157038095Y-84026247D01*
X157038095Y-84026247D02*
X157085714Y-84216723D01*
X157085714Y-84216723D02*
X157133333Y-84311961D01*
X157133333Y-84311961D02*
X157228571Y-84407200D01*
X157228571Y-84407200D02*
X157371428Y-84454819D01*
X157371428Y-84454819D02*
X157466666Y-84454819D01*
X157466666Y-84454819D02*
X157609523Y-84407200D01*
X157609523Y-84407200D02*
X157657142Y-84359580D01*
X157657142Y-84359580D02*
X157657142Y-84026247D01*
X157657142Y-84026247D02*
X157466666Y-84026247D01*
X158085714Y-83788152D02*
X158085714Y-84454819D01*
X158085714Y-83883390D02*
X158133333Y-83835771D01*
X158133333Y-83835771D02*
X158228571Y-83788152D01*
X158228571Y-83788152D02*
X158371428Y-83788152D01*
X158371428Y-83788152D02*
X158466666Y-83835771D01*
X158466666Y-83835771D02*
X158514285Y-83931009D01*
X158514285Y-83931009D02*
X158514285Y-84454819D01*
%TO.C,D4*%
X157061905Y-85854819D02*
X157061905Y-84854819D01*
X157061905Y-84854819D02*
X157300000Y-84854819D01*
X157300000Y-84854819D02*
X157442857Y-84902438D01*
X157442857Y-84902438D02*
X157538095Y-84997676D01*
X157538095Y-84997676D02*
X157585714Y-85092914D01*
X157585714Y-85092914D02*
X157633333Y-85283390D01*
X157633333Y-85283390D02*
X157633333Y-85426247D01*
X157633333Y-85426247D02*
X157585714Y-85616723D01*
X157585714Y-85616723D02*
X157538095Y-85711961D01*
X157538095Y-85711961D02*
X157442857Y-85807200D01*
X157442857Y-85807200D02*
X157300000Y-85854819D01*
X157300000Y-85854819D02*
X157061905Y-85854819D01*
X158490476Y-85188152D02*
X158490476Y-85854819D01*
X158252381Y-84807200D02*
X158014286Y-85521485D01*
X158014286Y-85521485D02*
X158633333Y-85521485D01*
%TO.C,Vc*%
X157038095Y-80654819D02*
X157371428Y-81654819D01*
X157371428Y-81654819D02*
X157704761Y-80654819D01*
X158466666Y-81607200D02*
X158371428Y-81654819D01*
X158371428Y-81654819D02*
X158180952Y-81654819D01*
X158180952Y-81654819D02*
X158085714Y-81607200D01*
X158085714Y-81607200D02*
X158038095Y-81559580D01*
X158038095Y-81559580D02*
X157990476Y-81464342D01*
X157990476Y-81464342D02*
X157990476Y-81178628D01*
X157990476Y-81178628D02*
X158038095Y-81083390D01*
X158038095Y-81083390D02*
X158085714Y-81035771D01*
X158085714Y-81035771D02*
X158180952Y-80988152D01*
X158180952Y-80988152D02*
X158371428Y-80988152D01*
X158371428Y-80988152D02*
X158466666Y-81035771D01*
D11*
%TO.C,J1*%
X159305000Y-80515000D02*
X160000000Y-80515000D01*
X159305000Y-81200000D02*
X159305000Y-80515000D01*
X159305000Y-81885000D02*
X159305000Y-96760000D01*
X159305000Y-81885000D02*
X159391724Y-81885000D01*
X159305000Y-96760000D02*
X159605507Y-96760000D01*
X160394493Y-96760000D02*
X160695000Y-96760000D01*
X160608276Y-81885000D02*
X160695000Y-81885000D01*
X160695000Y-81885000D02*
X160695000Y-96760000D01*
D12*
%TO.C,S1*%
X161400000Y-91800000D02*
X162947500Y-91800000D01*
X167400000Y-91800000D02*
X165852500Y-91800000D01*
X167400000Y-91800000D02*
X167400000Y-89100000D01*
X167400000Y-89100000D02*
X171400000Y-89100000D01*
X167400000Y-89100000D02*
X167400000Y-84100000D01*
X171400000Y-89100000D02*
X171400000Y-84100000D01*
X167400000Y-84100000D02*
X167400000Y-81400000D01*
X171400000Y-84100000D02*
X167400000Y-84100000D01*
X161400000Y-81400000D02*
X161400000Y-91800000D01*
X162947500Y-81400000D02*
X161400000Y-81400000D01*
X167400000Y-81400000D02*
X165852500Y-81400000D01*
D13*
X160950000Y-88600000D02*
G75*
G03*
X160950000Y-88600000I-100000J0D01*
G01*
%TD*%
M02*
