%TF.GenerationSoftware,KiCad,Pcbnew,7.0.5-0*%
%TF.CreationDate,2023-06-18T22:27:15-04:00*%
%TF.ProjectId,esp_connectors,6573705f-636f-46e6-9e65-63746f72732e,rev?*%
%TF.SameCoordinates,Original*%
%TF.FileFunction,Legend,Bot*%
%TF.FilePolarity,Positive*%
%FSLAX46Y46*%
G04 Gerber Fmt 4.6, Leading zero omitted, Abs format (unit mm)*
G04 Created by KiCad (PCBNEW 7.0.5-0) date 2023-06-18 22:27:15*
%MOMM*%
%LPD*%
G01*
G04 APERTURE LIST*
%ADD10C,0.150000*%
G04 APERTURE END LIST*
D10*
%TO.C,Gn*%
X157990476Y-82102438D02*
X158085714Y-82054819D01*
X158085714Y-82054819D02*
X158228571Y-82054819D01*
X158228571Y-82054819D02*
X158371428Y-82102438D01*
X158371428Y-82102438D02*
X158466666Y-82197676D01*
X158466666Y-82197676D02*
X158514285Y-82292914D01*
X158514285Y-82292914D02*
X158561904Y-82483390D01*
X158561904Y-82483390D02*
X158561904Y-82626247D01*
X158561904Y-82626247D02*
X158514285Y-82816723D01*
X158514285Y-82816723D02*
X158466666Y-82911961D01*
X158466666Y-82911961D02*
X158371428Y-83007200D01*
X158371428Y-83007200D02*
X158228571Y-83054819D01*
X158228571Y-83054819D02*
X158133333Y-83054819D01*
X158133333Y-83054819D02*
X157990476Y-83007200D01*
X157990476Y-83007200D02*
X157942857Y-82959580D01*
X157942857Y-82959580D02*
X157942857Y-82626247D01*
X157942857Y-82626247D02*
X158133333Y-82626247D01*
X157514285Y-82388152D02*
X157514285Y-83054819D01*
X157514285Y-82483390D02*
X157466666Y-82435771D01*
X157466666Y-82435771D02*
X157371428Y-82388152D01*
X157371428Y-82388152D02*
X157228571Y-82388152D01*
X157228571Y-82388152D02*
X157133333Y-82435771D01*
X157133333Y-82435771D02*
X157085714Y-82531009D01*
X157085714Y-82531009D02*
X157085714Y-83054819D01*
%TO.C,Sg*%
X158538094Y-84407200D02*
X158395237Y-84454819D01*
X158395237Y-84454819D02*
X158157142Y-84454819D01*
X158157142Y-84454819D02*
X158061904Y-84407200D01*
X158061904Y-84407200D02*
X158014285Y-84359580D01*
X158014285Y-84359580D02*
X157966666Y-84264342D01*
X157966666Y-84264342D02*
X157966666Y-84169104D01*
X157966666Y-84169104D02*
X158014285Y-84073866D01*
X158014285Y-84073866D02*
X158061904Y-84026247D01*
X158061904Y-84026247D02*
X158157142Y-83978628D01*
X158157142Y-83978628D02*
X158347618Y-83931009D01*
X158347618Y-83931009D02*
X158442856Y-83883390D01*
X158442856Y-83883390D02*
X158490475Y-83835771D01*
X158490475Y-83835771D02*
X158538094Y-83740533D01*
X158538094Y-83740533D02*
X158538094Y-83645295D01*
X158538094Y-83645295D02*
X158490475Y-83550057D01*
X158490475Y-83550057D02*
X158442856Y-83502438D01*
X158442856Y-83502438D02*
X158347618Y-83454819D01*
X158347618Y-83454819D02*
X158109523Y-83454819D01*
X158109523Y-83454819D02*
X157966666Y-83502438D01*
X157109523Y-83788152D02*
X157109523Y-84597676D01*
X157109523Y-84597676D02*
X157157142Y-84692914D01*
X157157142Y-84692914D02*
X157204761Y-84740533D01*
X157204761Y-84740533D02*
X157299999Y-84788152D01*
X157299999Y-84788152D02*
X157442856Y-84788152D01*
X157442856Y-84788152D02*
X157538094Y-84740533D01*
X157109523Y-84407200D02*
X157204761Y-84454819D01*
X157204761Y-84454819D02*
X157395237Y-84454819D01*
X157395237Y-84454819D02*
X157490475Y-84407200D01*
X157490475Y-84407200D02*
X157538094Y-84359580D01*
X157538094Y-84359580D02*
X157585713Y-84264342D01*
X157585713Y-84264342D02*
X157585713Y-83978628D01*
X157585713Y-83978628D02*
X157538094Y-83883390D01*
X157538094Y-83883390D02*
X157490475Y-83835771D01*
X157490475Y-83835771D02*
X157395237Y-83788152D01*
X157395237Y-83788152D02*
X157204761Y-83788152D01*
X157204761Y-83788152D02*
X157109523Y-83835771D01*
%TO.C,Vc*%
X158561904Y-80654819D02*
X158228571Y-81654819D01*
X158228571Y-81654819D02*
X157895238Y-80654819D01*
X157133333Y-81607200D02*
X157228571Y-81654819D01*
X157228571Y-81654819D02*
X157419047Y-81654819D01*
X157419047Y-81654819D02*
X157514285Y-81607200D01*
X157514285Y-81607200D02*
X157561904Y-81559580D01*
X157561904Y-81559580D02*
X157609523Y-81464342D01*
X157609523Y-81464342D02*
X157609523Y-81178628D01*
X157609523Y-81178628D02*
X157561904Y-81083390D01*
X157561904Y-81083390D02*
X157514285Y-81035771D01*
X157514285Y-81035771D02*
X157419047Y-80988152D01*
X157419047Y-80988152D02*
X157228571Y-80988152D01*
X157228571Y-80988152D02*
X157133333Y-81035771D01*
%TD*%
M02*
